# xmcd
#
# Track frame offsets: 
#        150
#        20295
#        39138
#        57568
#        78886
#        94609
#        112768
#        127646
#        146622
#
# Disc length: 2187 seconds
#
# Revision: 0
# Processed by: cddbd v1.5.2PL0 Copyright (c) Steve Scherf et al.
# Submitted via: ExactAudioCopy v1.0b3
#
DISCID=5d088909
DTITLE=MacLean Sisters - Other SIde Of Loving Me
DYEAR=2013
DGENRE=Country
TTITLE0=Second Chance
TTITLE1=So Long
TTITLE2=Is It Any Wonder
TTITLE3=Favorite Mistake
TTITLE4=A Reason To Leave
TTITLE5=Take Me Down
TTITLE6=She Cries
TTITLE7=Other Side Of Loving Me
TTITLE8=Broken Things
EXTD=
EXTT0=
EXTT1=
EXTT2=
EXTT3=
EXTT4=
EXTT5=
EXTT6=
EXTT7=
EXTT8=
PLAYORDER=
